# xmcd
#
# Track frame offsets:
#	182
#	12190
#	29410
#	47300
#	65110
#
# Disc length: 1108 seconds
#
# Revision: 2
# Processed by: cddbd v1.5.2PL0 Copyright (c) Steve Scherf et al.
# Submitted via: EasyCDDAExtractor 15.2.5.1
#
DISCID=38045205
DTITLE=Dan Brodie and The Broken Arrows -  Big Black Guitar (I'm Floatin' Mamma 
DTITLE=EP)
DYEAR=2001
DGENRE=Country
TTITLE0=Lullaby
TTITLE1=Love Gets Me High
TTITLE2=Flowers Again
TTITLE3=I'm Floatin' Mamma
TTITLE4=Even I Wouldn't Put Up With Me
EXTD=
EXTT0=
EXTT1=
EXTT2=
EXTT3=
EXTT4=
PLAYORDER=
